<svg id="visual" viewBox="0 0 900 600" width="900" height="600" xmlns="http://www.w3.org/2000/svg" xmlns:xlink="http://www.w3.org/1999/xlink" version="1.1"><rect x="0" y="0" width="900" height="600" fill="#111111"></rect><path d="M598 600L604 540L587 480L583 420L602 360L637 300L609 240L566 180L614 120L636 60L566 0L900 0L900 60L900 120L900 180L900 240L900 300L900 360L900 420L900 480L900 540L900 600Z" fill="#ff619a"></path><path d="M619 600L651 540L630 480L590 420L615 360L621 300L592 240L586 180L629 120L632 60L588 0L900 0L900 60L900 120L900 180L900 240L900 300L900 360L900 420L900 480L900 540L900 600Z" fill="#ed538b"></path><path d="M643 600L643 540L630 480L663 420L613 360L642 300L616 240L670 180L633 120L677 60L640 0L900 0L900 60L900 120L900 180L900 240L900 300L900 360L900 420L900 480L900 540L900 600Z" fill="#db447c"></path><path d="M662 600L708 540L698 480L646 420L665 360L687 300L641 240L703 180L642 120L657 60L662 0L900 0L900 60L900 120L900 180L900 240L900 300L900 360L900 420L900 480L900 540L900 600Z" fill="#c9356e"></path><path d="M692 600L671 540L711 480L722 420L712 360L719 300L698 240L705 180L693 120L712 60L727 0L900 0L900 60L900 120L900 180L900 240L900 300L900 360L900 420L900 480L900 540L900 600Z" fill="#b8245f"></path><path d="M706 600L747 540L742 480L745 420L728 360L704 300L750 240L708 180L713 120L709 60L706 0L900 0L900 60L900 120L900 180L900 240L900 300L900 360L900 420L900 480L900 540L900 600Z" fill="#a70f52"></path><path d="M767 600L741 540L738 480L746 420L749 360L769 300L723 240L762 180L747 120L729 60L742 0L900 0L900 60L900 120L900 180L900 240L900 300L900 360L900 420L900 480L900 540L900 600Z" fill="#950044"></path><path d="M788 600L771 540L773 480L789 420L782 360L783 300L774 240L782 180L747 120L785 60L784 0L900 0L900 60L900 120L900 180L900 240L900 300L900 360L900 420L900 480L900 540L900 600Z" fill="#830036"></path><path d="M813 600L794 540L800 480L787 420L802 360L784 300L804 240L788 180L799 120L786 60L775 0L900 0L900 60L900 120L900 180L900 240L900 300L900 360L900 420L900 480L900 540L900 600Z" fill="#710029"></path><path d="M824 600L816 540L823 480L830 420L834 360L819 300L827 240L805 180L813 120L812 60L832 0L900 0L900 60L900 120L900 180L900 240L900 300L900 360L900 420L900 480L900 540L900 600Z" fill="#60001d"></path><path d="M851 600L853 540L850 480L844 420L852 360L841 300L855 240L845 180L844 120L848 60L853 0L900 0L900 60L900 120L900 180L900 240L900 300L900 360L900 420L900 480L900 540L900 600Z" fill="#4f0010"></path><path d="M867 600L877 540L870 480L860 420L856 360L871 300L858 240L867 180L857 120L870 60L877 0L900 0L900 60L900 120L900 180L900 240L900 300L900 360L900 420L900 480L900 540L900 600Z" fill="#000000"></path></svg>